<?xml version="1.0" encoding="UTF-8" standalone="no"?>
<!-- Generator: Adobe Illustrator 19.1.0, SVG Export Plug-In . SVG Version: 6.00 Build 0)  -->

<svg
   xmlns:dc="http://purl.org/dc/elements/1.1/"
   xmlns:cc="http://creativecommons.org/ns#"
   xmlns:rdf="http://www.w3.org/1999/02/22-rdf-syntax-ns#"
   xmlns:svg="http://www.w3.org/2000/svg"
   xmlns="http://www.w3.org/2000/svg"
   xmlns:sodipodi="http://sodipodi.sourceforge.net/DTD/sodipodi-0.dtd"
   xmlns:inkscape="http://www.inkscape.org/namespaces/inkscape"
   version="1.1"
   id="Capa_1"
   x="0px"
   y="0px"
   viewBox="0 0 488.3 488.3"
   style="enable-background:new 0 0 488.3 488.3;"
   xml:space="preserve"
   inkscape:version="0.91 r13725"
   sodipodi:docname="addtext.svg"><metadata
     id="metadata45"><rdf:RDF><cc:Work
         rdf:about=""><dc:format>image/svg+xml</dc:format><dc:type
           rdf:resource="http://purl.org/dc/dcmitype/StillImage" /><dc:title></dc:title></cc:Work></rdf:RDF></metadata><defs
     id="defs43" /><sodipodi:namedview
     pagecolor="#ffffff"
     bordercolor="#666666"
     borderopacity="1"
     objecttolerance="10"
     gridtolerance="10"
     guidetolerance="10"
     inkscape:pageopacity="0"
     inkscape:pageshadow="2"
     inkscape:window-width="1500"
     inkscape:window-height="937"
     id="namedview41"
     showgrid="false"
     inkscape:zoom="0.64"
     inkscape:cx="-59.785742"
     inkscape:cy="172.12683"
     inkscape:window-x="-8"
     inkscape:window-y="-8"
     inkscape:window-maximized="1"
     inkscape:current-layer="g5" /><g
     id="g3"><g
       id="g5"><path
         d="m 109.93406,0.167467 284.8125,0 c 20.94654,0 38.02474,16.730601 38.58577,37.542989 0.009,0.351195 0.0142,290.547304 0.0142,290.900764 0,7.5 -6,13.5 -13.5,13.5 -7.5,0 -13.5,-6 -13.5,-13.5 0,-0.28603 -0.0104,-290.413405 -0.0308,-290.694279 -0.43639,-6.003878 -5.45522,-10.749474 -11.5692,-10.749474 l -284.8125,0 c -6.4,0 -11.6,5.2 -11.6,11.6 l 0,410.856253 c 0,6.08239 4.69669,11.08093 10.65652,11.56207 0.31121,0.0251 161.17274,0.0379 161.49036,0.0379 7.5,0 13.5,6 13.5,13.5 0,7.5 -6,13.5 -13.5,13.5 -0.53078,0 -161.60594,-0.0107 -162.13154,-0.032 -20.56679,-0.83266 -37.01534,-17.79875 -37.01534,-38.56798 l 0,-410.856253 c 0,-21.3 17.3,-38.6 38.6,-38.6 z"
         id="path9"
         inkscape:connector-curvature="0"
         sodipodi:nodetypes="cssssssssssssssssssc" /><path
         inkscape:connector-curvature="0"
         d="m 301.79389,430.11554 118.775,0 c 7.5,0 13.5,-6 13.5,-13.5 0,-7.5 -6,-13.5 -13.5,-13.5 l -118.775,0 c -7.5,0 -13.5,6 -13.5,13.5 0,7.5 6.1,13.5 13.5,13.5 z"
         id="path9-1"
         sodipodi:nodetypes="sssssss" /><path
         inkscape:connector-curvature="0"
         d="m 347.34375,356.41249 0,118.775 c 0,7.5 6,13.5 13.5,13.5 7.5,0 13.5,-6 13.5,-13.5 l 0,-118.775 c 0,-7.5 -6,-13.5 -13.5,-13.5 -7.5,0 -13.5,6.1 -13.5,13.5 z"
         id="path9-1-3"
         sodipodi:nodetypes="sssssss" /><path
         inkscape:connector-curvature="0"
         d="m 150.82066,319.82117 116.95572,0.50657 c 7.49992,0.0325 13.5,-6 13.5,-13.5 0,-7.5 -6.00008,-13.46752 -13.5,-13.5 l -116.95572,-0.50657 c -7.49992,-0.0325 -13.5,6 -13.5,13.5 0,7.5 6.10008,13.46795 13.5,13.5 z"
         id="path9-06-6"
         sodipodi:nodetypes="sssssss" /><path
         inkscape:connector-curvature="0"
         d="m 268.87638,364.52774 -117.05572,-0.50657 c -7.49992,-0.0325 -13.5,6 -13.5,13.5 0,7.5 6.00008,13.46752 13.5,13.5 l 116.95572,0.50657 c 7.49992,0.0325 13.5,-6 13.5,-13.5 0,-7.5 -6.00007,-13.46798 -13.4,-13.5 z"
         id="path11-6"
         sodipodi:nodetypes="sssssss" /><path
         inkscape:connector-curvature="0"
         d="m 149.78613,175.74469 205.23698,0.50657 c 7.49997,0.0185 13.5,-6 13.5,-13.5 0,-7.5 -6.00003,-13.48149 -13.5,-13.5 l -205.23698,-0.50657 c -7.49997,-0.0185 -13.5,6 -13.5,13.5 0,7.5 6.10003,13.48174 13.5,13.5 z"
         id="path9-0-2"
         sodipodi:nodetypes="sssssss" /><path
         inkscape:connector-curvature="0"
         d="m 356.12311,220.45126 -205.33698,-0.50657 c -7.49997,-0.0185 -13.5,6 -13.5,13.5 0,7.5 6.00003,13.48149 13.5,13.5 l 205.23698,0.50657 c 7.49997,0.0185 13.5,-6 13.5,-13.5 0,-7.5 -6.00002,-13.48174 -13.4,-13.5 z"
         id="path11-5-0"
         sodipodi:nodetypes="sssssss" /><path
         inkscape:connector-curvature="0"
         d="m 150.28613,105.82223 205.23698,0.50657 c 7.49997,0.0185 13.5,-6 13.5,-13.5 0,-7.499997 -6.00003,-13.481485 -13.5,-13.499997 l -205.23698,-0.50657 c -7.49997,-0.01851 -13.5,6 -13.5,13.499997 0,7.5 6.10002,13.48174 13.5,13.5 z"
         id="path9-0-8-0"
         sodipodi:nodetypes="sssssss" /></g></g><g
     id="g11" /><g
     id="g13" /><g
     id="g15" /><g
     id="g17" /><g
     id="g19" /><g
     id="g21" /><g
     id="g23" /><g
     id="g25" /><g
     id="g27" /><g
     id="g29" /><g
     id="g31" /><g
     id="g33" /><g
     id="g35" /><g
     id="g37" /><g
     id="g39" /></svg>